<svg 
 xmlns="http://www.w3.org/2000/svg"
 xmlns:xlink="http://www.w3.org/1999/xlink"
 width="20px" height="12px">
<path fill-rule="evenodd"  fill="rgb(0, 231, 239)"
 d="M0.202,2.185 L9.538,11.793 C9.671,11.930 9.824,11.999 9.998,11.999 C10.172,11.999 10.325,11.930 10.459,11.793 L19.793,2.185 C19.927,2.047 19.994,1.888 19.994,1.710 C19.994,1.531 19.927,1.374 19.793,1.236 L18.792,0.206 C18.658,0.068 18.505,-0.001 18.331,-0.001 C18.158,-0.001 18.004,0.068 17.870,0.206 L9.998,8.308 L2.125,0.205 C1.992,0.067 1.838,-0.001 1.665,-0.001 C1.491,-0.001 1.337,0.067 1.204,0.205 L0.202,1.236 C0.069,1.374 0.003,1.531 0.003,1.710 C0.003,1.888 0.069,2.047 0.202,2.185 Z"/>
</svg>