<svg 
 xmlns="http://www.w3.org/2000/svg"
 xmlns:xlink="http://www.w3.org/1999/xlink"
 width="20px" height="12px">
<path fill-rule="evenodd"  fill="rgb(43, 217, 121)"
 d="M0.202,2.185 L9.538,11.793 C9.671,11.931 9.824,11.999 9.998,11.999 C10.172,11.999 10.325,11.931 10.459,11.793 L19.793,2.185 C19.927,2.047 19.994,1.889 19.994,1.710 C19.994,1.531 19.927,1.373 19.793,1.236 L18.792,0.206 C18.658,0.067 18.505,-0.002 18.331,-0.002 C18.158,-0.002 18.004,0.067 17.870,0.206 L9.998,8.308 L2.125,0.205 C1.992,0.067 1.838,-0.002 1.665,-0.002 C1.491,-0.002 1.337,0.067 1.204,0.205 L0.202,1.236 C0.069,1.373 0.003,1.531 0.003,1.710 C0.003,1.889 0.069,2.047 0.202,2.185 Z"/>
</svg>