<svg 
 xmlns="http://www.w3.org/2000/svg"
 xmlns:xlink="http://www.w3.org/1999/xlink"
 width="920px" height="424px">
<path fill-rule="evenodd"  fill="rgb(13, 21, 46)"
 d="M916.632,371.056 C915.895,371.382 914.928,371.261 914.155,371.586 C912.683,372.191 911.905,373.724 910.618,374.774 C909.396,375.763 907.790,376.609 906.537,377.433 C905.333,378.215 903.585,379.820 902.109,378.666 C902.225,376.596 904.431,376.618 904.950,374.946 C904.941,373.706 903.845,373.567 903.886,372.289 C906.340,370.138 910.201,368.591 910.786,364.146 C911.055,362.177 909.453,357.951 911.851,357.768 C914.674,357.554 913.081,360.607 913.273,362.195 C913.345,362.840 914.007,363.278 914.328,364.146 C914.916,365.698 914.866,367.110 916.632,367.509 C917.689,367.424 919.111,366.479 920.000,367.333 C919.357,368.863 918.202,370.343 916.632,371.056 ZM888.645,386.809 C887.264,387.360 885.694,387.180 884.222,387.873 C881.882,388.973 880.125,391.124 878.021,392.480 C875.964,393.803 872.955,395.665 870.579,395.842 C867.958,396.043 863.118,394.357 866.330,391.948 C867.721,390.910 870.674,389.689 872.176,388.941 C877.212,386.412 884.297,384.712 888.470,381.676 C890.828,379.963 892.962,378.143 895.203,376.720 C896.321,376.005 898.208,377.923 899.452,378.133 C898.467,381.089 894.160,382.637 891.303,384.511 C890.430,385.088 889.714,386.398 888.645,386.809 ZM864.733,263.914 C863.289,263.779 860.766,262.698 860.663,261.969 C860.301,259.423 867.188,260.990 868.808,259.662 C869.376,259.509 869.359,259.938 869.697,260.013 C869.483,262.545 867.967,264.201 864.733,263.914 ZM865.265,277.898 C864.273,278.895 862.993,277.370 861.374,277.017 C859.205,276.543 857.541,277.119 856.060,275.952 C854.374,274.634 853.968,271.758 852.159,270.109 C851.247,269.276 848.832,268.158 847.204,268.336 C844.390,268.641 844.417,271.865 841.890,273.295 C839.470,273.037 838.039,273.738 836.218,273.117 C834.304,272.465 833.342,269.983 831.610,269.758 C829.813,269.514 825.551,272.657 824.883,269.933 C824.343,267.728 827.854,267.003 828.069,265.506 C828.297,263.968 826.690,261.576 825.943,260.900 C825.202,260.230 824.159,260.175 823.286,259.662 C822.383,259.120 821.681,258.083 820.629,257.537 C816.921,255.601 811.254,256.388 809.827,253.284 C809.574,252.734 809.966,252.131 809.649,251.340 C809.264,250.368 807.837,250.055 807.345,249.214 C806.088,247.054 806.969,243.864 809.116,243.543 C811.053,243.258 814.873,245.646 815.316,247.091 C815.553,247.845 815.155,248.695 815.316,249.567 C815.517,250.615 817.083,253.172 818.505,253.284 C820.339,253.436 821.422,250.606 823.108,249.567 C824.275,248.852 826.185,248.028 827.719,248.149 C829.222,248.266 830.234,249.451 831.964,250.096 C833.203,250.561 834.746,250.745 836.218,251.159 C837.501,251.522 838.616,252.278 839.935,252.752 C844.153,254.281 849.171,255.176 851.448,257.890 C852.070,258.633 852.056,259.729 852.870,260.547 C853.617,261.303 857.715,262.041 857.826,263.736 C857.917,265.024 856.140,265.099 856.060,266.391 C855.894,268.972 859.513,268.820 860.130,271.704 C861.409,272.066 867.099,276.092 865.265,277.898 ZM832.497,32.098 C831.451,32.362 830.286,33.511 830.376,34.575 C830.619,37.661 838.397,37.402 839.049,40.421 C837.775,41.374 836.383,40.474 835.332,40.599 C833.735,40.787 831.043,42.473 830.018,43.430 C828.819,44.553 827.768,47.428 826.476,47.683 C824.892,47.992 822.477,46.122 820.098,46.618 C819.225,46.802 818.389,47.889 817.620,48.036 C815.665,48.408 813.177,46.972 811.957,49.275 C812.600,50.894 812.208,53.148 813.549,54.056 C814.412,54.647 815.495,54.190 816.559,54.588 C817.803,55.053 818.491,56.569 819.565,57.423 C820.446,58.116 821.385,58.134 821.873,59.015 C821.985,60.320 821.354,60.464 821.515,61.317 C821.793,62.803 824.115,63.139 824.172,64.149 C824.252,65.429 822.709,65.156 822.406,66.452 C822.294,67.276 823.358,67.494 823.466,68.576 C823.537,69.301 822.880,70.057 822.937,70.879 C823.014,72.060 823.944,72.847 823.819,73.889 C823.716,74.783 822.937,75.481 822.222,75.839 C818.831,73.661 815.777,70.660 812.126,67.869 C808.391,65.008 802.469,61.493 801.856,55.474 C801.835,54.552 803.811,53.828 804.157,52.464 C804.299,51.905 803.936,51.108 803.982,50.339 C804.107,48.260 805.825,46.261 805.757,45.026 C805.672,43.672 803.145,41.154 801.856,40.774 C800.828,41.315 801.844,42.387 801.678,43.255 C801.473,44.325 800.176,45.630 799.021,45.733 C795.671,46.024 795.295,41.418 789.985,42.724 C788.611,43.064 786.681,45.135 787.155,47.683 C787.301,48.456 789.431,49.289 789.279,50.339 C789.131,51.359 784.452,51.658 783.432,51.578 C780.574,51.349 779.103,49.213 776.526,49.275 C775.261,49.307 774.152,50.334 773.158,50.513 C767.580,51.534 759.301,47.768 757.400,52.638 C757.127,53.327 757.279,54.226 757.042,54.941 C756.698,55.965 755.883,56.769 755.625,57.423 C755.409,57.969 755.445,59.046 755.092,59.900 C754.770,60.674 751.420,63.697 754.385,64.507 C755.092,64.695 755.422,64.203 756.336,64.328 C757.856,64.534 760.388,66.975 762.177,66.984 C763.245,66.989 764.727,65.782 765.542,65.745 C767.183,65.666 768.368,66.725 769.615,67.338 C770.806,67.924 772.627,69.154 773.516,69.108 C775.189,69.024 774.389,67.865 775.995,67.338 C779.058,68.246 780.494,71.491 783.432,74.068 C784.498,74.998 786.072,75.799 787.508,77.078 C788.308,77.793 790.772,79.711 790.876,80.620 C790.970,81.465 790.186,81.827 789.985,82.569 C789.698,83.646 790.370,84.439 789.632,85.226 C786.806,84.180 786.170,81.393 784.140,79.028 C783.388,78.147 782.631,77.100 781.487,75.839 C780.968,75.271 779.090,73.276 777.939,73.715 C775.713,74.560 779.161,77.936 779.712,78.675 C780.888,80.235 782.449,82.337 782.552,83.988 C782.618,85.042 781.863,86.961 781.840,88.768 C781.827,89.989 782.148,91.097 782.019,92.130 C781.884,93.168 781.148,94.354 780.776,95.499 C780.359,96.795 780.266,98.347 779.894,99.215 C779.206,100.810 776.889,102.689 775.282,102.757 C773.812,102.819 773.181,101.625 771.741,101.696 C769.562,101.799 769.159,103.807 767.849,105.412 C767.960,107.155 768.507,107.755 768.202,108.955 C767.723,110.833 765.111,111.158 765.192,113.028 C765.264,114.759 767.580,115.094 768.730,115.864 C770.314,116.915 773.078,119.254 774.580,121.176 C775.565,122.437 776.987,124.794 776.884,126.131 C776.750,127.884 771.704,130.321 769.615,129.673 C767.634,129.061 768.314,127.169 767.849,125.425 C767.486,124.083 766.436,123.506 765.904,122.415 C765.620,121.842 765.750,120.935 765.367,120.291 C764.298,118.488 762.432,119.473 760.226,118.341 C758.783,117.599 759.203,116.039 758.635,114.621 C757.874,112.715 754.663,111.816 752.086,112.322 C750.190,112.688 749.599,114.280 747.832,114.621 C745.233,113.082 748.364,109.285 745.176,108.955 C742.733,108.699 741.113,112.460 739.682,113.560 C738.716,114.298 736.963,114.450 736.852,115.506 C736.642,117.459 738.914,117.062 740.742,117.810 C742.403,118.488 742.594,120.367 744.110,120.465 C745.377,120.550 746.218,119.159 747.475,119.048 C749.652,118.855 751.420,119.835 752.788,120.644 C751.903,122.790 747.134,124.365 747.120,127.196 C747.113,128.837 749.023,129.119 750.489,130.205 C751.724,131.122 753.353,133.711 755.092,135.518 C755.844,136.296 757.060,136.810 757.400,137.290 C758.218,138.461 758.088,139.887 758.988,140.657 C759.141,141.626 758.546,141.864 758.635,142.781 C759.073,144.055 761.032,143.813 761.470,145.084 C761.108,148.138 762.379,151.013 759.877,152.168 C758.724,157.645 757.423,161.930 753.679,164.917 C750.310,167.596 745.864,168.387 741.808,169.698 C740.756,170.037 739.915,171.147 738.976,171.468 C736.619,172.269 732.422,171.781 732.249,174.657 C732.150,176.075 734.047,176.930 734.195,178.374 C734.418,180.592 732.433,182.823 731.004,182.980 C729.976,183.091 727.759,182.376 727.636,180.498 C727.498,178.387 730.257,177.523 730.473,176.249 C730.849,173.995 728.527,171.799 725.870,172.000 C723.530,172.174 718.208,176.871 718.078,179.438 C717.976,181.357 721.880,185.350 723.213,186.521 C728.188,190.904 733.470,193.533 732.597,204.230 C731.355,206.940 728.178,207.518 725.692,209.011 C723.799,210.146 722.855,213.671 719.667,213.971 C718.387,213.532 719.134,211.533 718.780,210.607 C718.297,209.338 715.761,208.716 714.178,207.419 C712.881,206.354 712.336,204.678 711.342,203.698 C710.103,202.478 708.250,202.222 706.735,201.396 C705.782,200.876 705.039,199.052 704.078,199.097 C702.517,199.160 703.058,200.662 702.665,203.166 C702.270,205.630 700.472,207.522 701.067,210.428 C701.318,211.618 702.803,212.580 703.545,213.791 C704.775,215.799 704.946,218.139 706.203,219.283 C707.034,220.040 708.448,220.204 709.392,220.876 C711.270,222.218 714.576,225.124 715.239,226.721 C716.007,228.586 715.265,230.781 715.770,232.744 C716.361,235.012 719.327,236.635 717.546,238.943 C715.850,238.629 714.371,237.519 712.935,236.639 C710.501,235.133 709.383,233.835 707.799,231.326 C707.334,230.593 706.646,229.877 706.381,229.202 C705.764,227.615 705.898,225.817 705.322,223.890 C704.825,222.231 702.902,219.609 701.421,218.219 C700.178,217.048 697.972,216.364 697.879,214.678 C697.749,212.302 698.684,209.507 698.590,206.708 C698.567,206.104 698.157,205.495 698.062,204.763 C697.874,203.403 698.196,201.739 697.879,200.509 C697.587,199.378 696.765,198.359 696.286,197.326 C695.812,196.306 695.329,195.281 694.873,193.958 C694.153,191.911 693.347,187.961 691.683,187.760 C689.908,187.545 688.153,191.088 685.837,191.127 C684.648,191.146 683.064,190.193 682.827,188.999 C682.604,187.913 683.386,186.817 683.359,185.636 C683.292,183.261 681.606,182.344 680.345,180.677 C679.835,180.002 679.701,179.053 679.279,178.552 C678.475,177.591 676.936,177.054 675.916,176.075 C674.945,175.136 673.881,173.785 673.434,172.887 C672.750,171.500 672.529,169.702 671.488,169.520 C670.490,169.344 669.337,170.774 668.299,171.115 C667.220,171.468 664.569,171.925 663.517,172.000 C659.961,172.247 657.076,171.299 657.496,175.543 C656.942,177.448 654.930,177.469 653.597,178.374 C651.901,179.527 650.666,181.839 648.815,183.686 C647.915,184.589 646.614,185.153 645.805,185.989 C645.128,186.687 644.919,187.805 644.208,188.471 C642.319,190.255 639.484,190.407 638.191,192.898 C638.116,195.841 639.582,198.068 639.251,200.862 C639.099,202.138 638.146,203.269 638.009,204.584 C637.897,205.711 638.472,206.923 638.191,208.126 C638.035,208.770 637.319,209.109 636.769,209.896 C636.277,210.602 636.079,211.543 635.714,212.021 C635.115,212.785 634.135,213.317 633.579,213.971 C632.681,215.035 632.492,215.795 631.633,215.920 C627.752,216.478 626.795,209.096 625.081,206.001 C624.289,204.579 622.679,203.295 621.891,201.574 C620.984,199.589 620.706,197.098 619.409,194.844 C618.309,192.920 616.789,190.994 616.046,188.999 C615.415,187.313 614.870,185.202 614.275,183.333 C613.644,181.357 612.960,178.870 612.857,177.313 C612.709,175.015 613.300,173.598 611.438,172.708 C609.731,173.110 608.970,174.832 607.010,174.832 C605.122,174.832 600.046,171.559 601.525,168.633 C600.288,166.880 597.170,165.919 594.791,163.853 C593.431,162.667 592.200,159.845 589.834,159.605 C589.181,159.537 588.331,159.904 587.706,159.958 C586.207,160.088 583.550,159.823 581.859,159.958 C579.735,160.128 577.109,160.606 574.420,160.311 C572.689,160.124 570.537,159.788 568.753,159.605 C566.485,159.371 563.471,158.835 562.204,157.655 C561.418,156.930 561.100,154.609 559.718,154.291 C558.077,153.911 557.172,155.181 555.648,155.530 C552.400,156.273 549.690,154.865 547.497,153.406 C545.942,152.373 544.523,151.836 543.424,151.103 C540.730,149.301 540.247,143.880 536.159,143.840 C534.737,143.828 532.474,144.717 532.262,146.322 C532.123,147.450 533.609,149.542 534.213,150.397 C536.200,153.196 539.848,154.247 540.944,158.008 C541.678,158.294 543.173,157.364 543.955,158.187 C544.640,159.801 543.946,162.797 545.548,163.500 C552.910,164.715 555.012,160.681 558.304,157.834 C560.214,159.081 559.583,160.172 560.250,161.549 C560.930,162.962 561.994,164.072 563.261,164.564 C564.150,164.904 565.291,164.586 566.629,165.091 C567.465,165.409 570.957,168.715 571.061,169.876 C571.150,170.917 568.767,174.464 568.042,175.363 C567.340,176.240 566.253,176.697 565.918,177.488 C565.667,178.101 565.747,179.402 565.563,179.791 C565.237,180.498 563.646,181.419 562.728,182.269 C561.762,183.172 560.634,183.874 559.718,184.571 C558.599,185.431 557.906,186.610 556.707,187.053 C554.351,187.921 552.109,187.549 550.155,188.825 C548.875,189.657 548.870,191.535 547.323,192.541 C545.705,193.592 542.934,193.600 540.587,194.669 C539.080,195.353 538.176,196.682 536.874,197.147 C536.341,197.334 535.676,197.174 535.099,197.326 C533.921,197.625 532.834,198.461 531.731,198.739 C530.858,198.962 529.933,198.851 529.074,199.097 C526.346,199.884 523.846,202.657 521.103,201.042 C519.810,198.059 519.600,194.303 518.092,191.655 C517.324,190.305 515.811,189.889 515.262,188.471 C515.185,187.331 516.558,187.644 516.675,186.700 C516.223,184.787 514.416,183.892 513.311,182.269 C512.769,181.477 512.520,180.349 511.893,179.438 C509.781,176.365 505.618,174.769 504.807,170.936 C504.588,169.894 504.843,169.076 504.633,168.280 C504.285,166.969 503.398,165.592 502.505,164.564 C501.828,163.776 500.447,163.240 499.673,162.081 C499.158,161.317 499.046,160.239 498.608,159.426 C496.846,156.138 494.297,153.236 491.523,150.924 C490.078,151.135 488.526,151.233 487.806,152.168 C488.526,154.484 489.632,156.424 490.817,158.365 C491.899,160.132 493.438,162.037 494.180,164.032 C494.458,164.769 494.408,165.735 494.713,166.509 C495.826,169.318 499.328,170.181 500.026,173.419 C500.497,175.587 499.923,177.090 500.559,179.259 C501.167,181.343 504.244,182.573 505.520,184.571 C506.557,186.204 506.566,188.512 507.290,190.063 C508.350,192.334 511.315,193.319 513.489,194.844 C515.440,196.216 516.836,198.333 518.445,199.803 C519.394,200.662 520.697,200.818 520.927,201.753 C521.228,202.952 520.423,203.354 520.216,204.405 C521.577,205.823 522.901,208.439 525.177,208.657 C526.113,208.747 527.294,207.804 528.720,207.593 C529.441,207.490 530.245,207.706 530.845,207.593 C531.788,207.424 532.611,206.583 533.685,206.354 C535.493,205.966 537.590,206.122 539.880,205.823 C542.045,205.540 543.535,203.711 545.194,204.230 C547.015,206.230 545.709,208.498 545.194,210.428 C545.015,211.108 545.015,211.810 544.846,212.379 C543.888,215.531 541.384,217.866 540.233,220.700 C539.880,221.568 539.942,222.634 539.531,223.532 C538.212,226.372 535.461,229.171 533.326,231.501 C532.123,232.811 531.064,233.997 529.785,235.043 C528.515,236.089 526.962,236.658 525.530,237.699 C522.695,239.775 519.742,242.748 517.739,245.493 C516.965,246.558 516.595,247.783 515.789,248.683 C514.635,249.971 512.851,250.606 511.893,251.870 C511.137,252.868 510.636,254.675 509.768,256.472 C508.794,258.499 506.758,259.867 507.112,262.670 C507.245,263.743 508.207,264.411 508.530,265.506 C509.079,267.393 508.658,268.981 508.350,270.992 C509.353,273.421 510.073,276.123 511.893,277.722 C512.112,281.307 511.597,284.784 511.893,287.816 C512.081,289.748 512.833,291.172 512.071,292.951 C511.401,294.519 508.829,297.280 507.290,298.263 C505.618,299.341 503.059,299.623 501.265,300.925 C500.018,301.828 498.984,303.412 497.722,304.471 C495.634,306.211 492.772,307.838 492.588,309.605 C492.480,310.620 493.389,312.158 493.647,313.142 C494.340,315.757 495.012,319.519 493.827,322.350 C492.542,325.414 486.049,324.778 485.324,328.016 C485.104,329.000 485.758,329.786 485.677,330.851 C485.614,331.754 484.429,335.010 483.905,335.985 C483.123,337.452 481.343,338.109 480.188,339.352 C478.739,340.922 478.005,343.193 476.467,344.839 C474.379,347.084 471.556,349.450 468.851,351.392 C466.497,353.091 462.274,354.852 458.581,355.112 C456.430,355.265 454.121,354.606 451.849,354.937 C451.017,355.053 450.114,355.819 449.013,355.998 C448.374,356.101 447.720,355.886 447.067,355.998 C445.954,356.185 444.911,357.072 443.878,357.062 C441.583,357.035 438.636,354.298 438.565,351.574 C438.537,350.523 439.464,349.526 439.450,348.560 C439.432,347.429 438.045,346.010 436.967,343.955 C435.934,341.978 435.527,339.738 434.489,338.118 C433.389,336.393 431.936,335.573 431.126,334.218 C429.493,331.494 429.373,328.270 428.822,325.006 C428.644,323.943 427.914,322.787 427.757,321.464 C427.565,319.837 427.954,318.030 427.583,316.684 C427.297,315.647 426.147,314.591 425.454,313.317 C424.206,311.022 423.330,308.021 422.269,306.237 C421.272,304.565 419.260,302.822 419.080,300.925 C418.959,299.637 419.241,297.235 419.433,295.965 C419.626,294.722 420.547,293.737 420.851,292.427 C421.053,291.555 420.811,290.554 421.026,289.593 C421.929,285.540 426.393,284.066 425.811,279.142 C425.562,277.053 424.085,276.024 423.862,273.649 C423.759,272.540 424.417,271.566 424.394,270.461 C424.363,268.968 423.097,266.746 422.444,265.326 C420.650,261.418 419.550,257.847 416.956,254.881 C415.542,253.263 413.690,252.121 412.527,250.627 C411.574,249.411 410.416,247.134 410.398,246.201 C410.380,245.191 411.176,244.559 411.463,243.543 C411.834,242.238 411.861,239.765 412.348,237.699 C412.572,236.751 413.597,234.457 413.413,232.919 C413.234,231.438 411.028,228.599 409.159,228.138 C406.685,227.525 404.141,228.929 401.014,228.670 C398.321,226.966 398.522,222.507 394.635,221.939 C389.532,221.192 384.312,223.250 380.818,224.770 C378.801,225.651 376.748,226.993 374.972,227.073 C373.291,227.155 371.635,226.180 370.016,226.013 C367.905,225.795 365.199,225.997 363.106,226.366 C361.070,226.729 359.232,228.183 357.438,228.312 C354.003,228.572 350.738,225.218 348.581,223.532 C347.262,222.504 345.921,221.662 344.686,220.700 C343.362,219.663 341.644,219.036 340.611,218.044 C339.215,216.694 339.215,214.347 338.486,212.553 C337.623,210.442 334.997,208.891 332.994,206.887 C331.495,205.388 328.056,203.149 327.680,201.221 C327.492,200.238 328.100,199.102 328.033,198.033 C327.939,196.481 326.772,195.600 326.794,194.490 C326.830,192.934 328.663,191.730 329.097,190.416 C329.322,189.745 329.214,188.798 329.451,187.938 C329.947,186.142 331.138,185.077 330.869,182.447 C330.761,181.401 329.863,180.443 329.805,179.085 C329.768,178.154 330.417,177.636 330.337,176.781 C330.202,175.269 328.239,174.975 328.033,173.240 C327.827,171.446 329.747,169.966 330.869,167.927 C331.375,167.014 331.652,165.615 332.108,164.917 C333.101,163.409 334.720,162.681 335.476,161.196 C336.031,160.101 336.210,158.478 336.715,157.655 C337.368,156.599 338.665,156.031 339.904,154.645 C340.911,153.513 341.322,152.145 342.029,151.635 C342.919,150.991 344.248,150.834 345.218,150.397 C348.497,148.902 350.894,146.980 352.478,143.840 C351.995,140.992 352.723,139.790 353.896,137.821 C354.978,136.001 355.770,134.261 357.617,133.215 C359.832,131.963 361.911,131.847 363.459,129.499 C364.232,128.323 365.396,126.292 365.409,125.072 C365.427,123.319 363.611,121.073 362.045,120.818 C360.444,120.564 357.984,122.035 357.085,120.291 C356.799,119.731 357.192,118.426 357.085,117.810 C356.879,116.650 355.886,115.832 355.846,114.978 C355.761,113.314 357.483,111.584 357.970,109.666 C358.633,107.054 357.993,105.055 357.791,102.050 C360.270,98.145 365.772,100.081 371.256,100.453 C372.078,100.511 373.022,100.256 373.912,100.279 C377.164,100.354 379.723,101.333 380.818,98.507 C381.230,97.443 381.597,93.486 381.351,92.484 C381.060,91.298 378.734,88.226 377.629,87.529 C375.871,86.411 373.322,86.898 372.315,84.873 C373.134,81.375 377.052,84.286 379.401,83.456 C380.599,83.030 380.465,80.955 381.530,80.620 C382.255,80.392 383.180,81.348 384.187,81.331 C385.045,81.313 388.154,79.752 388.968,79.202 C390.100,78.437 390.448,76.849 391.446,76.191 C392.122,75.750 393.012,75.803 393.750,75.486 C395.257,74.838 397.163,73.518 398.178,72.297 C399.641,70.544 400.298,68.371 402.074,68.049 C404.449,67.615 409.821,68.518 410.224,65.920 C410.603,63.447 408.045,61.501 408.984,58.837 C409.727,56.730 411.619,57.101 414.298,55.826 C415.591,56.744 415.216,59.364 415.359,60.964 C417.005,60.979 420.355,60.478 420.672,59.015 C421.070,57.191 418.275,55.335 417.662,54.234 C417.000,53.041 416.857,50.943 415.537,50.693 C412.840,50.174 410.219,54.409 406.856,54.409 C404.646,54.409 402.302,52.705 401.720,51.045 C401.389,50.098 401.689,49.204 401.541,48.211 C401.327,46.762 400.459,45.260 400.835,43.255 C402.190,40.930 405.317,40.555 407.567,39.356 C408.417,38.904 409.101,37.939 410.045,37.586 C411.633,36.999 413.981,37.589 415.537,36.700 C416.522,36.142 416.245,35.174 416.956,34.043 C417.398,33.332 418.480,32.917 419.080,32.098 C419.496,31.530 419.545,30.671 419.966,30.149 C421.504,28.234 424.313,27.528 425.454,25.547 C425.959,24.670 424.582,24.343 424.927,23.065 C425.499,21.831 427.708,22.738 428.997,22.533 C430.759,22.260 432.388,20.118 434.310,19.702 C436.319,19.268 438.470,19.531 440.336,18.816 C441.449,18.387 442.474,17.376 443.525,17.220 C443.896,17.165 444.943,17.421 445.470,17.398 C446.145,17.372 446.875,16.956 447.774,16.867 C449.076,16.737 450.691,17.184 452.381,17.220 C455.181,17.282 457.843,16.379 460.174,17.398 C461.393,17.931 461.255,19.313 462.829,19.876 C463.621,20.162 464.667,19.765 465.840,19.876 C467.575,20.042 469.387,21.240 471.686,21.473 C472.504,21.553 473.349,21.370 474.163,21.473 C476.695,21.781 479.477,23.114 481.961,23.950 C484.035,24.652 488.433,25.524 488.513,27.492 C488.611,29.821 484.689,30.502 483.021,30.502 C480.234,30.502 476.544,28.873 473.636,29.795 C473.680,33.802 478.005,36.835 481.961,36.346 C482.308,34.463 479.723,35.510 480.010,33.690 C481.776,32.357 483.892,34.584 486.389,34.222 C487.363,33.958 487.198,32.550 487.448,31.566 C489.555,30.286 492.194,28.409 495.420,29.795 C495.580,29.482 495.817,29.245 496.131,29.088 C496.341,27.143 494.005,26.128 495.244,24.303 C495.862,23.047 499.164,23.481 499.673,24.482 C499.928,25.681 498.854,25.551 498.961,26.607 C499.588,28.019 501.033,28.243 501.798,28.203 C503.537,28.109 503.882,26.553 505.520,25.721 C506.181,25.385 507.152,25.350 507.997,25.014 C509.000,24.617 509.849,23.811 510.654,23.597 C511.244,23.440 512.135,23.597 512.958,23.418 C514.004,23.195 515.109,22.354 515.968,22.358 C517.037,22.358 517.801,23.592 519.157,23.775 C519.895,23.874 520.736,23.356 521.814,23.244 C522.682,23.149 523.580,23.346 524.293,23.244 C525.983,22.997 527.146,22.107 528.545,22.179 C529.534,22.233 531.230,23.565 531.909,22.890 C533.055,21.754 530.380,20.910 531.207,19.876 C533.921,20.081 536.808,20.019 539.531,20.409 C543.579,20.985 547.389,22.988 551.040,23.065 C550.696,20.605 547.877,21.311 546.612,20.234 C546.227,19.903 544.643,17.310 544.666,16.513 C544.675,16.115 546.671,12.707 547.145,12.264 C548.706,10.798 553.827,10.807 555.290,12.793 C556.292,14.152 555.960,16.200 557.414,16.160 C558.667,16.124 559.333,13.048 560.782,12.971 C561.981,12.908 562.589,14.943 563.792,14.921 C565.260,14.890 566.280,12.157 568.222,12.086 C569.268,12.046 569.617,12.622 571.231,12.793 C572.340,12.082 570.861,11.142 571.410,10.137 C573.391,8.696 577.914,9.792 580.441,8.897 C581.148,8.056 579.541,7.462 580.266,6.594 C582.449,5.070 586.118,4.931 589.834,4.296 C592.107,3.906 594.249,2.328 596.029,2.167 C597.890,2.002 599.666,3.258 601.343,3.231 C602.363,3.214 603.548,2.905 604.533,2.524 C605.529,2.136 606.210,1.169 607.193,0.928 C608.746,0.548 610.709,1.112 612.507,0.928 C614.408,0.736 616.087,-0.002 617.463,0.222 C618.751,0.428 619.785,1.801 621.007,1.993 C624.737,2.574 628.588,1.433 631.987,2.346 C632.595,2.511 633.208,3.142 633.937,3.410 C636.214,4.242 637.766,3.983 638.191,6.773 C639.980,7.408 641.031,9.049 643.148,9.608 C644.561,9.979 645.983,9.429 647.576,9.429 C649.668,9.429 652.348,9.510 654.128,9.783 C655.144,9.939 655.980,10.687 656.965,10.847 C657.680,10.963 658.628,10.771 659.442,10.847 C660.552,10.950 661.548,11.407 662.452,11.379 C664.309,11.321 665.718,9.666 667.234,9.429 C668.049,9.305 669.131,9.720 669.891,9.783 C672.875,10.034 676.314,9.394 678.748,9.961 C680.049,10.265 682.273,11.697 683.709,12.793 C684.751,13.589 685.382,14.854 686.364,15.449 C687.296,16.013 689.657,17.023 690.619,16.867 C691.751,16.687 691.799,15.426 692.918,14.921 C696.434,14.139 702.669,16.040 705.497,14.742 C706.591,14.237 706.377,13.079 707.267,12.440 C712.582,12.180 717.878,12.659 722.855,12.793 C724.605,12.842 726.412,12.345 727.996,12.617 C729.748,12.923 731.027,14.680 732.772,15.275 C733.935,15.668 735.983,15.462 737.733,15.806 C738.908,16.035 739.871,16.741 740.742,16.867 C742.635,17.135 744.442,16.656 746.240,16.513 C750.301,16.187 755.522,15.972 759.524,17.577 C761.654,18.433 762.548,20.158 764.834,20.409 C768.108,20.771 773.176,20.140 776.526,20.409 C777.326,20.476 778.074,20.806 778.650,20.762 C779.774,20.681 780.458,19.728 781.840,19.702 C783.593,19.661 786.385,22.434 788.930,22.004 C790.026,21.262 788.048,20.230 789.099,19.523 C790.097,18.695 791.462,19.514 793.000,19.523 C793.837,19.531 794.866,19.098 795.657,19.170 C797.603,19.338 799.451,21.089 801.856,21.647 C803.766,22.094 806.392,22.260 808.767,22.004 C810.467,21.817 811.926,21.244 813.549,21.473 C814.332,21.580 815.030,22.147 815.848,22.358 C816.604,22.551 817.342,22.367 817.973,22.533 C818.564,22.694 819.149,23.249 819.749,23.418 C823.040,24.361 827.424,24.826 830.908,25.900 C832.957,26.531 835.051,27.801 836.754,27.846 C837.592,27.872 838.338,27.482 839.411,27.492 C844.762,27.528 851.055,29.755 850.563,34.754 C844.301,36.127 839.062,30.444 832.497,32.098 ZM492.588,285.340 C493.407,284.038 494.435,280.380 492.588,279.493 C492.467,279.493 492.350,279.493 492.234,279.493 C491.443,280.966 490.602,284.517 492.588,285.340 ZM488.513,250.981 C489.707,250.458 489.559,249.451 490.105,248.325 C490.705,247.099 492.109,245.803 491.876,244.256 C491.366,240.842 484.983,242.524 484.265,244.962 C483.775,246.602 484.554,247.904 483.905,249.567 C484.603,250.877 486.353,251.138 488.513,250.981 ZM479.304,266.570 C480.006,265.269 478.185,264.420 477.886,263.025 C477.536,261.391 478.283,259.474 476.820,258.596 C476.647,258.596 476.467,258.596 476.293,258.596 C475.009,261.499 476.825,266.288 479.304,266.570 ZM447.774,48.743 C445.963,48.627 443.574,47.280 442.992,45.555 C442.809,45.009 442.962,44.275 442.814,43.255 C442.653,42.125 442.066,40.939 442.107,40.241 C442.286,37.044 450.252,36.441 450.252,32.451 C448.732,30.994 444.272,31.240 442.814,32.805 C442.291,33.369 442.317,34.508 441.575,35.640 C439.987,38.060 434.856,38.346 433.250,41.306 C432.893,41.964 432.271,43.761 432.539,44.847 C432.960,46.525 436.672,46.981 436.793,48.743 C436.999,51.712 432.253,51.341 431.654,53.881 C431.385,55.031 432.208,56.565 432.012,57.597 C431.649,59.458 429.851,58.917 427.583,59.900 C426.425,60.402 425.302,62.244 424.041,62.378 C422.874,62.503 422.162,61.698 421.384,61.851 C420.221,62.070 420.610,63.496 418.902,63.796 C417.541,64.034 415.162,62.579 415.005,64.328 C414.902,65.450 417.143,66.058 418.548,65.920 C419.662,65.812 420.476,65.048 421.558,65.034 C423.655,65.017 425.020,66.590 426.340,66.631 C429.381,66.716 432.365,63.823 435.554,64.149 C436.994,64.297 437.849,65.316 438.918,65.213 C440.626,65.052 442.080,63.080 443.346,62.378 C442.809,59.396 443.395,55.460 446.182,55.294 C448.096,55.182 450.968,58.567 451.316,55.294 C451.469,53.873 449.805,52.615 448.660,52.638 C447.640,52.660 446.303,54.655 445.470,52.997 C445.475,51.373 447.296,51.802 448.307,51.399 C449.058,51.099 449.590,50.282 450.431,49.982 C454.644,48.502 460.486,51.435 462.122,47.857 C458.384,44.669 452.019,49.020 447.774,48.743 ZM461.411,110.019 C459.345,107.308 456.192,109.512 454.681,111.258 C453.750,111.248 452.587,110.743 452.381,111.789 C451.684,115.062 457.011,115.412 456.984,117.634 C456.966,119.079 454.904,118.945 453.974,119.933 C452.985,120.984 453.643,121.918 452.381,122.589 C448.888,123.009 447.729,121.100 447.774,117.987 C446.266,115.698 444.361,114.029 442.992,112.143 C442.487,111.445 441.731,110.358 441.575,109.308 C441.449,108.480 441.968,107.429 441.754,106.477 C441.369,104.785 438.220,103.512 436.261,102.582 C434.168,101.584 431.546,100.640 430.061,99.394 C429.010,98.507 428.514,96.969 427.583,96.384 C426.791,95.887 425.808,95.989 425.100,95.499 C424.130,94.819 424.291,93.686 422.976,93.369 C422.310,93.124 421.281,94.031 420.851,94.613 C419.988,98.476 423.132,98.740 424.568,100.453 C425.557,101.629 426.049,103.400 427.051,104.174 C428.120,105.001 429.573,104.849 430.947,105.412 C431.896,105.802 432.512,106.982 433.425,107.536 C435.116,108.565 437.831,108.744 438.032,110.725 C436.981,111.440 434.597,109.683 433.783,111.436 C433.573,112.585 434.695,113.176 434.669,114.267 C434.624,116.011 432.686,117.921 430.947,117.634 C430.772,116.596 431.873,115.748 431.833,114.621 C431.757,112.367 427.225,108.928 424.927,107.894 C423.848,107.408 422.538,107.380 421.558,106.831 C419.818,105.850 416.772,103.445 415.712,102.050 C414.446,100.372 413.364,97.269 410.577,97.443 C409.441,97.515 408.501,98.557 407.567,99.041 C406.717,99.473 405.778,99.877 404.910,100.453 C403.876,101.138 403.035,101.831 402.074,101.871 C399.851,101.964 397.963,100.221 396.053,100.632 C395.409,100.770 394.873,101.347 394.103,102.050 C394.076,103.082 394.412,103.744 394.282,104.879 C393.705,105.877 391.992,105.815 390.740,106.477 C388.905,107.443 387.273,109.428 385.779,110.904 C384.817,111.852 383.950,112.634 383.829,113.381 C383.735,113.967 384.325,115.076 384.187,115.864 C384.030,116.718 382.424,118.488 381.351,119.227 C380.724,119.656 379.893,119.714 379.226,120.112 C377.830,120.939 377.204,122.018 376.037,122.236 C372.941,122.812 367.315,121.614 367.359,124.893 C367.386,127.083 370.343,127.093 372.141,127.017 C374.646,126.918 376.775,127.549 378.162,127.196 C379.119,126.954 380.165,125.880 381.171,125.425 C381.807,125.139 382.464,125.134 382.943,124.893 C384.004,124.361 384.603,123.497 385.426,123.122 C387.045,122.383 390.060,121.807 391.800,121.704 C394.188,121.565 396.684,121.950 399.771,121.704 C400.870,121.619 401.958,120.913 403.139,120.818 C405.067,120.667 407.602,121.579 409.159,121.529 C410.237,121.494 411.441,120.447 412.701,120.465 C414.129,120.487 415.632,121.503 415.890,122.415 C416.038,122.934 415.591,123.761 415.712,124.540 C415.918,125.828 417.023,126.359 416.956,127.196 C416.861,128.305 414.098,129.785 414.473,131.092 C414.719,131.931 416.700,132.808 417.662,133.394 C418.668,134.006 420.368,134.857 421.558,134.986 C422.560,135.097 423.446,134.708 424.394,134.811 C425.919,134.977 428.388,135.903 429.355,136.582 C431.018,137.754 430.786,139.632 432.718,140.298 C433.541,140.585 435.026,140.424 436.082,140.657 C438.663,141.215 440.577,143.353 442.460,143.134 C445.426,142.789 444.075,139.995 444.411,138.000 C445.167,133.479 454.000,133.684 455.745,136.757 C457.038,137.101 458.170,136.810 459.641,137.290 C460.491,137.566 461.125,138.496 461.944,138.707 C462.561,138.863 463.459,138.616 464.247,138.707 C467.643,139.091 470.720,141.618 473.636,141.185 C475.487,140.911 476.829,139.171 478.592,139.060 C481.982,138.850 484.151,141.582 487.806,140.298 C490.495,139.355 489.896,136.570 490.817,133.747 C491.457,131.784 492.690,130.446 492.763,128.967 C492.861,127.067 492.038,125.635 491.876,122.947 C488.607,120.975 486.164,124.777 482.845,124.361 C480.806,124.105 479.343,121.731 477.178,122.062 C475.984,122.241 475.394,123.783 474.163,124.007 C471.631,124.471 470.478,121.981 467.789,122.947 C463.997,120.058 462.301,115.353 461.411,110.019 ZM504.275,101.696 C502.432,100.596 500.228,99.639 498.077,98.328 C496.828,97.568 492.086,96.133 492.056,94.613 C492.020,92.949 495.584,92.403 494.180,89.474 C491.756,88.885 485.990,89.814 486.389,92.484 C486.617,94.026 488.446,93.173 488.866,94.787 C487.132,95.404 485.019,97.022 483.199,96.737 C481.029,96.398 480.471,93.731 479.304,92.130 C477.617,92.184 476.508,90.498 474.521,90.712 C472.438,90.941 471.332,93.965 470.268,95.499 C469.704,96.303 468.805,96.719 468.496,97.443 C468.313,97.882 468.514,98.579 468.322,99.215 C467.714,101.182 466.009,101.902 466.192,103.642 C466.358,105.175 468.026,105.864 468.144,107.184 C468.026,108.544 465.843,107.836 466.018,109.487 C469.189,112.103 469.364,108.252 470.979,107.715 C472.276,107.282 474.821,108.074 476.467,107.715 C477.796,107.425 478.842,106.159 480.363,105.591 C481.294,105.242 482.444,104.934 483.732,104.879 C489.367,104.647 493.004,108.314 497.902,108.421 C499.520,108.458 502.420,108.372 504.100,108.069 C508.901,107.201 506.709,103.144 504.275,101.696 ZM541.477,109.308 C542.640,108.748 544.399,110.202 545.015,108.780 C545.028,106.682 542.367,105.118 539.701,106.124 C538.932,105.595 538.829,104.401 538.641,103.288 C536.633,102.095 531.663,99.483 531.731,97.090 C531.788,95.122 534.329,94.018 537.223,94.081 C538.444,93.155 537.658,90.311 536.517,89.653 C531.936,88.651 529.495,89.327 526.595,91.424 C525.204,92.430 523.652,93.124 522.873,93.727 C522.158,94.282 521.201,95.798 521.282,96.559 C521.394,97.654 522.964,98.298 523.586,99.747 C523.903,100.493 523.835,101.428 524.117,102.050 C524.892,103.758 526.873,104.862 528.367,106.298 C529.423,107.314 532.383,109.512 532.442,110.725 C532.496,111.735 531.533,111.959 531.207,113.028 C530.872,114.075 530.487,116.547 530.676,117.455 C531.064,119.401 533.078,119.468 534.919,120.291 C536.749,121.105 538.512,122.545 540.412,122.589 C542.439,122.643 544.595,121.994 545.727,120.818 C546.612,114.678 541.826,114.217 540.944,109.840 C541.352,109.893 541.141,109.329 541.477,109.308 ZM556.707,93.369 C553.886,94.076 556.878,98.350 558.836,97.976 C561.707,97.420 558.868,92.832 556.707,93.369 ZM565.918,22.533 C565.273,21.915 563.099,21.674 562.204,20.234 C561.119,18.503 561.270,16.191 558.658,16.691 C558.631,16.898 558.689,17.193 558.478,17.220 C558.234,21.092 563.872,22.067 563.792,25.188 C563.753,26.826 562.021,27.000 562.554,28.910 C566.718,29.879 568.673,25.179 565.918,22.533 ZM598.337,92.311 C599.536,92.386 599.966,91.692 600.103,90.712 C599.438,89.376 597.523,91.106 598.337,92.311 ZM633.406,8.544 C632.739,8.897 631.383,9.094 631.813,10.137 C633.513,9.930 636.895,9.161 637.301,7.127 C635.352,7.127 634.617,7.895 633.406,8.544 ZM681.936,62.557 C679.892,62.910 681.369,65.034 681.230,66.278 C681.029,68.035 679.163,69.256 679.279,71.059 C678.600,71.854 677.437,72.167 677.335,73.535 C678.461,74.315 678.953,72.923 679.812,72.118 C681.168,70.848 683.239,70.097 683.709,68.576 C684.411,66.322 683.319,64.047 681.936,62.557 ZM421.738,118.521 C423.585,117.026 427.695,118.037 430.240,117.987 C429.761,119.343 429.690,121.100 428.644,121.883 C425.740,121.359 423.034,120.644 421.738,118.521 ZM408.627,114.092 C409.016,112.375 408.851,111.110 408.806,109.134 C411.239,106.593 413.793,107.935 412.881,112.850 C412.299,114.316 409.767,116.275 408.627,114.092 ZM412.348,103.468 C412.549,104.966 411.924,105.636 411.109,106.124 C408.774,105.712 410.550,101.521 412.348,103.468 ZM486.562,127.375 C486.343,128.796 483.178,129.776 482.492,128.081 C482.574,126.619 485.910,126.081 486.562,127.375 ZM504.275,22.179 C503.761,20.265 507.393,20.574 506.758,22.358 C506.190,22.890 504.638,22.846 504.275,22.179 ZM388.968,75.660 C386.535,77.569 382.478,76.581 378.515,77.078 C376.721,77.305 374.744,79.090 372.847,77.611 C372.409,76.421 374.422,76.259 374.619,75.133 C374.480,74.086 373.156,74.234 372.847,73.361 C373.363,71.984 374.968,71.702 374.798,69.640 C375.786,68.562 377.688,68.970 377.987,67.517 C378.193,66.506 377.401,65.248 376.390,64.681 C375.809,64.355 374.919,64.507 374.265,64.149 C372.539,63.201 371.912,61.224 370.902,60.786 C371.031,58.845 370.369,57.440 370.902,56.180 C371.224,55.416 373.550,53.255 374.798,52.817 C376.346,52.271 377.965,52.758 378.873,51.578 C379.279,51.521 379.553,51.605 379.758,51.753 C379.750,52.870 378.810,53.054 378.694,54.056 C378.913,55.666 381.749,54.659 382.057,56.180 C381.789,57.835 380.299,58.161 380.287,59.368 C380.281,60.419 382.433,62.414 383.476,63.796 C384.253,64.820 385.613,65.580 386.311,66.631 C386.919,67.548 387.054,68.639 387.550,69.108 C388.480,69.990 390.583,70.136 390.740,71.412 C390.945,73.102 388.638,73.769 388.968,75.660 ZM369.658,67.691 C369.198,69.045 369.748,70.655 369.131,71.591 C368.589,72.399 367.117,72.351 366.116,72.650 C363.888,73.317 359.586,75.933 357.791,73.003 C358.051,71.434 359.572,71.121 360.095,69.820 C360.126,68.796 359.035,68.255 359.210,67.164 C359.424,65.826 360.431,66.286 361.867,65.745 C362.908,65.348 363.356,64.087 364.703,63.264 C367.069,61.819 371.201,62.923 371.430,64.681 C371.604,66.010 370.173,66.202 369.658,67.691 ZM59.687,67.164 C59.311,68.321 58.287,68.832 57.204,69.287 C56.865,69.032 56.570,68.737 56.319,68.403 C56.395,66.721 58.788,65.481 59.687,67.164 ZM243.723,24.836 C244.094,26.409 239.062,28.467 238.583,26.432 C238.202,24.805 242.439,22.770 243.723,24.836 ZM210.242,41.127 C210.180,40.796 210.260,40.134 210.953,39.714 C211.898,39.133 214.107,39.463 214.142,40.421 C214.179,41.396 210.623,43.010 210.242,41.127 ZM292.786,283.569 C291.086,286.069 289.195,286.588 289.423,291.184 C289.485,292.446 290.129,293.676 290.129,295.080 C290.129,296.793 289.981,299.033 289.597,300.570 C289.306,301.744 288.336,302.695 288.179,303.760 C288.022,304.837 288.497,305.674 288.358,306.595 C288.206,307.616 287.186,309.054 286.408,310.486 C284.771,313.509 284.413,317.064 281.094,318.276 C279.144,318.991 276.500,318.592 274.366,319.340 C273.504,319.645 272.412,320.440 271.352,320.933 C268.270,322.368 263.877,324.304 263.028,327.484 C262.271,330.319 264.083,332.577 263.560,335.810 C263.010,336.773 262.267,337.735 261.435,338.820 C260.670,339.826 260.290,341.006 259.485,342.009 C258.420,343.342 256.766,343.932 256.122,345.729 C255.902,346.338 256.041,347.062 255.768,348.028 C255.665,348.386 255.012,348.940 254.703,349.621 C254.417,350.250 254.431,351.056 254.171,351.574 C253.362,353.207 250.955,356.923 249.210,357.418 C245.533,358.448 241.656,355.857 239.115,356.350 C239.482,358.126 240.770,357.943 241.598,359.186 C242.081,359.919 242.344,360.890 243.011,361.664 C243.807,362.585 244.510,362.924 244.608,363.967 C244.810,366.148 243.110,368.345 241.951,369.104 C240.891,369.798 238.690,370.204 236.811,370.519 C235.501,370.737 232.119,370.751 231.498,371.586 C230.585,372.817 231.981,375.854 231.323,377.074 C230.000,379.664 226.439,377.002 224.592,377.780 C224.435,379.117 224.927,380.518 226.009,381.142 C227.123,381.796 228.814,380.946 229.552,382.208 C229.190,383.970 227.293,384.198 226.895,385.928 C226.945,387.620 227.463,388.062 227.249,389.113 C226.788,391.388 223.250,391.295 223.352,393.719 C223.505,397.346 230.312,395.861 230.437,399.390 C230.509,401.527 228.488,401.550 227.781,403.634 C227.401,404.751 228.000,405.011 227.781,405.936 C227.486,407.193 226.009,407.555 226.009,408.946 C226.005,410.641 228.488,412.506 229.726,413.905 C230.939,415.280 232.495,417.236 234.155,418.158 C236.642,419.531 240.345,419.223 241.419,421.700 C241.079,423.190 239.643,423.588 238.230,423.999 C238.113,423.999 237.993,423.999 237.876,423.999 C236.990,423.999 236.105,423.999 235.219,423.999 C234.392,423.999 233.564,423.999 232.741,423.999 C230.371,422.907 227.494,422.201 224.592,421.168 C223.545,420.798 222.364,419.912 221.227,419.403 C220.374,419.011 219.412,418.861 218.745,418.512 C217.220,417.712 215.503,415.118 213.963,414.088 C213.029,413.458 211.562,413.127 210.953,412.488 C210.372,411.884 210.054,410.574 209.536,409.836 C208.963,409.023 207.912,408.428 207.232,407.533 C205.761,405.578 203.882,402.948 203.868,401.509 C203.855,400.091 205.220,399.130 204.754,397.798 C204.320,396.540 201.601,396.813 201.211,395.311 C200.974,394.407 201.994,392.882 201.918,391.599 C201.878,390.853 200.482,389.836 201.033,388.759 C201.668,387.520 202.867,388.862 203.868,388.231 C203.117,385.674 203.926,381.559 201.386,380.789 C200.080,381.889 202.719,384.363 200.500,385.042 C198.358,384.091 198.855,381.270 198.375,379.198 C198.063,377.829 197.383,376.600 197.315,375.125 C197.280,374.351 197.619,373.453 197.490,372.651 C197.114,370.263 194.457,368.308 194.300,365.916 C194.229,364.763 195.008,363.788 195.186,362.553 C195.311,361.717 195.070,360.779 195.186,359.896 C195.343,358.770 195.965,357.737 196.072,356.708 C196.282,354.763 196.067,351.426 195.719,349.800 C195.280,347.755 193.657,346.017 193.415,343.784 C193.330,342.975 193.684,341.629 193.594,340.595 C193.509,339.634 192.981,338.680 192.887,337.581 C192.798,336.571 193.138,335.610 193.241,334.393 C193.429,332.171 192.807,329.693 192.887,327.484 C192.909,326.835 193.250,326.352 193.241,325.717 C193.218,323.889 192.610,322.046 192.530,320.226 C192.391,316.863 192.901,314.480 192.355,311.372 C191.943,309.019 191.434,305.414 190.584,303.938 C189.636,302.288 185.909,299.489 184.031,298.442 C182.791,297.754 181.307,297.517 179.956,296.850 C177.071,295.438 171.479,292.446 170.214,289.593 C169.847,288.764 169.896,287.673 169.503,286.757 C168.733,284.941 167.109,283.371 165.960,281.618 C163.773,278.277 162.006,274.088 159.760,270.639 C158.624,268.887 157.640,266.901 156.397,265.506 C155.667,264.684 153.333,263.914 153.033,262.670 C152.635,261.034 151.423,258.784 151.615,257.537 C151.870,255.841 155.162,254.473 155.158,252.935 C155.153,251.620 153.400,250.856 153.033,249.747 C152.138,247.037 153.557,245.448 154.626,243.190 C154.979,242.452 155.323,241.260 155.690,240.713 C156.338,239.738 157.658,239.465 158.521,238.410 C159.005,237.820 159.309,236.590 159.939,235.753 C161.286,233.964 163.460,233.295 164.015,231.680 C164.466,230.365 164.730,223.788 164.189,221.586 C163.880,220.316 162.695,219.254 162.243,218.044 C161.443,215.906 161.255,213.572 159.054,213.617 C157.694,213.645 156.737,215.147 155.864,216.095 C155.654,217.355 155.766,218.720 154.447,219.105 C152.434,219.700 151.660,216.985 149.312,216.273 C148.377,215.988 146.888,216.005 146.301,215.742 C144.589,214.972 144.034,212.462 142.227,211.488 C140.715,210.679 139.421,210.961 138.505,209.717 C138.125,208.864 138.424,207.321 138.331,206.176 C136.389,205.040 134.743,200.805 132.484,199.803 C130.986,199.137 128.691,199.199 126.817,198.564 C125.936,198.265 125.256,197.880 124.335,197.679 C123.198,197.424 122.031,197.410 121.150,196.968 C117.643,195.228 115.751,189.589 111.408,189.710 C109.556,189.759 107.772,191.489 106.094,191.480 C104.425,191.472 101.630,190.148 99.537,189.178 C97.362,188.167 94.957,187.618 93.162,186.700 C91.714,185.957 90.707,184.603 89.441,184.039 C88.471,183.609 87.053,183.534 86.256,183.158 C85.125,182.622 83.944,181.477 82.535,180.498 C81.197,179.572 79.752,178.159 79.699,176.960 C79.641,175.574 80.974,174.394 81.117,173.061 C81.573,168.844 78.465,165.811 76.509,163.321 C75.061,161.469 73.361,159.900 71.907,158.187 C71.988,157.051 71.988,156.844 71.907,155.709 C70.807,154.641 69.881,153.057 68.718,151.457 C67.666,150.012 65.618,148.473 65.355,146.854 C65.028,144.865 66.110,143.116 65.355,141.185 C64.093,137.977 59.643,139.426 60.215,143.666 C60.376,144.833 62.022,146.403 62.518,147.562 C63.028,148.741 62.930,150.213 63.404,151.635 C63.861,152.999 65.234,154.176 65.708,155.709 C66.459,158.133 66.437,160.745 67.125,162.260 C67.734,163.607 69.975,164.881 68.718,166.509 C67.041,166.857 66.396,165.181 65.355,164.206 C64.773,163.665 62.666,162.636 62.344,161.375 C62.075,160.333 63.006,158.930 62.697,157.655 C62.089,155.155 57.044,155.092 57.025,152.520 C57.016,150.906 59.137,150.713 59.155,149.153 C59.169,147.446 56.825,146.001 56.319,144.552 C55.858,143.223 55.782,141.107 55.612,139.238 C55.446,137.485 55.661,135.455 55.255,134.100 C54.892,132.884 53.062,131.211 51.891,130.558 C50.338,129.696 49.109,130.053 48.348,128.788 C47.686,127.683 47.252,125.376 47.109,124.187 C46.854,122.057 47.051,119.728 46.930,117.455 C46.814,115.179 46.581,112.996 46.930,110.551 C47.807,108.838 49.404,107.992 50.298,106.298 C50.920,105.118 51.009,103.660 51.712,102.403 C53.009,100.090 55.836,97.953 57.737,95.673 C59.785,93.218 61.673,90.865 62.872,88.056 C63.301,87.059 64.456,84.851 64.289,83.629 C64.057,81.925 60.846,80.521 61.100,78.495 C61.262,77.239 63.051,77.257 63.583,76.018 C63.856,75.378 64.102,73.594 64.115,72.830 C64.142,71.121 63.239,69.340 63.583,67.517 C63.873,65.960 66.191,65.329 65.001,63.622 C63.820,61.931 61.700,64.534 60.394,63.442 C59.195,62.436 60.635,61.219 60.747,59.368 C60.791,58.630 60.317,57.790 60.394,57.244 C60.501,56.453 62.044,55.120 61.633,54.588 C60.676,53.377 59.602,50.299 57.558,49.275 C54.960,47.969 52.145,48.850 48.527,48.211 C46.308,47.821 45.257,45.747 43.213,45.912 C41.952,46.011 41.227,47.455 39.492,48.211 C37.774,48.962 35.529,48.707 33.825,49.096 C32.134,49.485 31.320,50.652 29.570,50.513 C28.112,50.402 28.103,49.087 26.386,48.922 C25.715,48.855 24.445,49.338 23.376,49.454 C20.638,49.740 15.695,49.879 12.922,49.275 C10.387,48.725 8.821,47.920 6.016,46.618 C3.909,45.644 -0.000,44.441 0.170,42.899 C0.277,41.905 3.874,40.854 5.305,40.421 C7.613,39.719 9.035,38.583 10.798,38.470 C11.477,38.431 12.372,38.892 13.276,38.829 C14.184,38.761 15.302,37.926 16.465,37.764 C18.938,37.420 22.427,37.889 22.132,35.461 C20.254,33.975 12.591,36.561 12.390,33.337 C12.269,31.387 15.297,30.797 17.530,30.328 C19.560,29.898 22.642,29.174 24.436,29.263 C26.458,29.366 29.119,31.627 30.282,29.088 C30.845,27.282 29.593,25.766 29.217,24.303 C30.721,22.228 33.489,22.488 35.595,22.179 C38.002,21.826 39.966,21.397 42.327,20.409 C44.398,19.541 46.599,18.959 49.055,18.637 C51.461,18.325 53.796,17.417 55.966,17.220 C57.750,17.058 59.388,17.201 61.100,16.867 C62.617,16.572 64.218,15.731 65.887,15.806 C67.001,15.856 67.954,16.669 69.071,16.867 C70.122,17.050 71.326,16.812 72.439,17.046 C73.294,17.224 74.063,17.801 74.918,17.931 C76.260,18.132 77.699,17.743 78.992,17.931 C80.182,18.100 81.193,18.843 82.356,18.991 C85.085,19.345 88.207,18.847 90.859,19.348 C91.865,19.536 92.773,20.032 93.870,20.234 C94.908,20.422 96.048,20.206 97.059,20.409 C98.467,20.690 99.644,22.022 101.133,22.179 C103.875,22.465 106.953,20.989 109.811,20.762 C111.882,20.600 114.016,20.847 116.190,20.409 C118.167,20.010 120.081,19.246 121.857,19.170 C122.822,19.129 123.632,19.465 124.513,19.348 C125.431,19.224 126.531,18.123 127.524,18.284 C128.843,18.494 128.611,20.162 130.006,20.587 C131.550,19.786 133.088,20.641 134.788,20.587 C136.443,20.529 137.923,19.769 139.749,20.056 C142.973,20.560 147.478,23.717 150.018,22.004 C150.658,21.572 150.506,20.824 151.083,19.702 C151.866,18.176 153.409,16.383 153.033,14.210 C149.482,14.268 146.091,16.003 142.048,16.160 C137.964,13.602 143.139,12.015 146.122,10.847 C148.582,9.881 150.528,7.738 153.566,7.305 C156.043,6.948 158.768,7.851 161.711,8.191 C163.428,8.388 165.146,8.070 166.139,8.365 C167.879,8.889 168.773,10.610 170.214,11.022 C170.835,11.201 171.855,11.182 172.692,11.379 C174.284,11.746 175.711,12.587 177.299,11.379 C178.547,11.602 178.694,12.931 179.956,13.150 C181.132,12.515 182.040,10.901 183.852,10.494 C184.639,10.315 185.467,10.628 186.330,10.494 C187.775,10.262 189.698,8.307 190.584,10.137 C190.221,11.415 188.289,11.607 187.215,12.617 C186.263,13.516 184.795,15.578 184.916,16.513 C185.127,18.202 187.659,17.550 187.748,19.702 C187.372,20.940 185.932,20.385 184.737,20.940 C183.646,21.446 183.239,22.492 182.080,22.712 C178.860,23.320 176.189,21.902 173.403,22.004 C173.273,23.212 174.781,23.915 175.528,24.303 C178.055,25.632 180.112,25.448 183.673,25.368 C185.498,25.327 187.596,25.913 189.166,24.836 C190.159,24.157 190.105,22.658 190.937,21.826 C191.939,20.829 194.247,19.813 195.719,20.056 C196.524,20.190 197.655,21.146 197.669,21.826 C197.696,23.436 195.392,22.921 195.366,24.661 C196.864,25.560 200.822,23.677 201.033,22.179 C201.185,21.089 199.745,20.457 199.794,19.348 C199.879,17.492 202.401,17.524 202.097,15.628 C200.881,14.671 199.610,15.834 198.375,15.628 C196.635,15.336 195.070,13.253 194.300,11.906 C195.070,10.954 196.681,11.589 197.843,11.732 C199.145,9.930 201.569,9.228 204.929,8.897 C206.123,8.781 207.715,8.307 208.296,9.429 C208.583,11.107 205.814,12.113 206.346,14.035 C208.730,14.631 209.513,11.415 211.485,10.137 C212.353,9.572 213.597,9.197 214.849,8.722 C215.940,8.307 217.144,7.278 218.038,7.305 C219.018,7.332 219.192,8.138 220.163,8.544 C221.036,8.911 222.176,8.294 222.467,9.429 C220.414,12.985 212.760,10.940 210.774,14.564 C211.217,16.992 209.576,19.308 210.953,20.940 C211.938,22.103 214.156,21.311 214.671,22.533 C215.364,24.164 212.523,24.164 213.257,26.074 C215.131,27.197 217.363,25.005 219.099,24.129 C220.960,23.185 223.312,22.071 223.527,19.876 C222.592,18.078 219.103,19.470 218.571,17.577 C218.280,16.548 219.640,14.245 219.984,13.857 C221.832,11.786 228.282,8.839 232.916,9.252 C233.797,9.331 234.687,9.867 235.572,9.961 C238.618,10.274 242.215,8.647 244.608,9.961 C246.531,8.839 248.839,10.113 251.514,9.783 C253.576,10.998 253.008,13.589 256.122,14.742 C256.967,15.055 258.022,14.832 259.132,15.095 C259.955,15.292 260.845,16.258 261.788,16.691 C263.130,17.300 264.159,17.162 264.445,18.105 C264.728,19.031 263.470,19.630 263.560,20.587 C264.325,21.218 263.685,22.166 264.092,23.065 C264.857,24.706 266.785,24.585 268.694,25.368 C270.037,25.917 272.899,27.603 272.770,28.910 C272.685,29.786 270.081,31.324 269.227,31.745 C268.624,32.039 265.636,33.485 264.624,33.337 C262.952,33.090 262.299,29.705 260.017,29.795 C259.024,29.835 258.090,30.434 258.067,31.745 C258.031,34.070 260.670,34.160 260.724,36.172 C260.796,38.578 259.409,38.743 257.361,40.241 C255.893,39.647 254.659,38.811 252.754,38.650 C251.621,39.996 254.614,40.479 253.639,42.192 C250.794,42.795 248.625,41.387 246.026,40.599 C245.212,40.354 244.040,40.452 243.369,40.067 C242.362,39.486 242.067,37.764 241.240,36.879 C240.283,35.850 238.372,34.392 236.811,34.401 C234.624,34.406 231.457,37.125 229.726,34.575 C230.926,30.520 236.606,33.530 240.354,32.098 C241.749,31.566 242.229,30.090 243.369,29.441 C245.659,28.136 249.381,27.953 249.036,25.368 C248.862,24.067 247.041,24.085 246.026,23.418 C244.639,22.515 243.579,19.326 241.598,19.170 C240.578,19.089 239.844,19.953 238.762,20.056 C236.472,20.269 233.922,19.134 231.856,20.056 C230.894,20.605 231.542,21.486 230.791,22.533 C230.174,23.391 228.715,23.632 228.134,24.482 C227.454,25.479 227.593,26.718 226.716,27.492 C225.262,28.779 222.185,28.986 220.342,29.617 C219.519,29.898 218.481,30.864 217.685,30.859 C216.223,30.850 215.596,28.892 213.963,29.617 C213.821,31.512 215.968,32.282 217.327,33.158 C218.799,34.106 220.346,35.050 220.870,36.700 C219.429,39.759 217.131,36.539 214.849,36.525 C212.336,36.508 208.668,41.311 206.525,37.411 C207.057,35.344 209.334,35.023 209.889,32.984 C207.388,33.409 205.210,35.515 202.272,36.172 C201.037,36.445 199.834,36.378 198.728,36.700 C196.609,37.322 195.129,38.887 192.887,39.714 C192.010,40.037 190.964,39.937 190.051,40.241 C187.913,40.957 185.350,42.236 183.145,43.430 C180.891,44.652 178.345,45.935 176.946,47.151 C176.189,47.804 174.222,50.130 174.289,50.868 C174.378,51.923 176.365,52.271 176.413,53.349 C176.368,54.002 175.264,55.411 176.060,56.359 C176.784,57.222 178.238,56.524 179.777,56.712 C182.483,57.048 184.254,59.283 186.330,60.434 C187.900,61.300 190.230,62.333 192.002,62.557 C194.435,62.861 197.159,61.846 197.490,63.796 C197.812,65.669 195.199,66.340 195.011,67.517 C196.322,69.247 194.122,70.074 194.126,71.591 C194.131,72.820 195.638,74.663 196.958,74.774 C198.743,74.926 201.355,73.016 202.097,71.233 C202.978,69.108 202.602,66.228 204.222,64.681 C212.474,64.910 219.457,60.934 218.924,52.464 C218.871,51.628 218.397,50.549 218.571,49.628 C218.830,48.260 221.183,47.111 220.870,45.380 C223.182,44.669 223.084,40.961 225.477,40.421 C227.481,39.969 229.749,41.838 232.383,41.659 C233.242,41.601 234.356,40.831 235.219,40.952 C236.950,41.194 237.993,43.328 239.294,44.317 C240.443,45.197 241.656,44.915 241.951,46.087 C241.607,48.071 240.211,48.121 240.354,49.982 C240.484,51.605 242.170,52.835 243.011,52.997 C244.304,53.237 246.151,52.544 247.439,51.932 C249.810,50.809 251.841,47.428 253.818,47.857 C255.379,48.197 256.599,53.157 256.828,54.941 C257.074,56.855 256.569,58.318 256.653,60.080 C256.882,63.067 260.643,62.762 262.496,64.328 C263.054,64.803 263.274,66.014 263.739,66.631 C264.638,67.829 265.725,67.829 265.864,69.108 C266.194,72.167 263.090,72.426 263.381,75.839 C262.741,77.163 261.126,77.082 261.256,78.848 C261.462,81.643 265.479,79.501 266.570,81.684 C267.161,82.856 266.472,83.728 266.038,85.400 C267.411,87.037 267.402,89.648 264.978,89.653 C263.506,89.653 263.100,88.070 261.609,87.703 C260.782,87.497 259.655,87.538 258.599,87.350 C257.696,87.189 256.622,86.921 255.768,86.818 C253.581,86.558 251.214,87.193 249.921,85.932 C252.028,83.133 254.829,80.374 257.539,77.963 C258.344,77.243 260.076,76.751 259.664,75.306 C258.157,73.983 256.305,75.387 254.882,76.191 C253.389,77.033 251.609,78.245 249.921,78.495 C246.992,78.929 243.105,77.636 240.712,79.202 C240.381,80.539 243.436,80.020 243.011,82.036 C241.839,82.230 240.730,82.323 239.826,81.505 C239.003,80.763 239.473,79.649 238.941,79.202 C238.032,78.451 234.620,78.245 233.094,78.495 C231.234,78.799 229.588,79.913 229.373,81.505 C231.610,82.551 235.295,80.427 236.105,83.101 C234.880,85.306 231.994,86.518 232.383,89.474 C232.536,90.614 233.891,92.139 234.866,92.311 C235.845,92.480 236.396,91.509 237.344,91.598 C238.346,91.692 238.118,92.837 239.294,92.663 C240.998,91.934 241.942,89.541 243.897,89.653 C246.241,92.497 241.781,93.883 239.294,94.787 C236.458,95.816 232.773,96.361 230.612,97.269 C229.481,97.743 225.196,101.884 224.592,98.681 C224.158,96.375 226.711,97.041 227.249,95.140 C224.506,94.607 221.952,96.321 219.457,97.269 C215.896,98.616 209.862,99.469 209.003,103.468 C208.833,104.268 209.352,105.767 208.829,106.298 C208.404,106.728 205.863,106.803 204.754,107.184 C203.045,107.769 201.555,109.021 200.500,109.308 C199.704,109.526 198.528,109.464 198.022,109.666 C196.613,110.211 196.094,112.116 194.479,113.381 C193.817,113.900 192.350,114.275 191.822,114.799 C190.906,115.711 190.785,117.996 189.166,118.341 C188.137,118.431 187.301,117.567 186.330,118.162 C186.214,120.420 187.126,123.493 186.156,125.778 C184.058,127.486 181.754,128.698 179.071,130.205 C177.585,131.041 176.257,131.257 174.463,132.155 C173.193,132.790 172.030,134.302 170.567,135.165 C167.186,137.154 163.102,139.511 163.128,144.552 C163.133,145.643 163.697,146.819 163.836,148.093 C163.920,148.844 163.746,149.578 163.836,150.397 C164.045,152.248 165.388,154.605 163.836,155.883 C161.451,154.904 158.419,154.574 156.750,152.874 C156.294,151.125 157.672,149.686 157.462,148.093 C157.292,146.815 155.493,144.539 154.447,144.373 C153.369,144.202 152.375,145.347 151.262,145.258 C149.938,145.156 148.708,143.331 147.008,143.134 C144.517,142.843 142.683,143.701 139.923,143.312 C137.252,144.740 136.470,147.280 133.196,147.028 C132.041,146.944 130.986,146.063 129.653,145.790 C128.208,145.490 126.016,144.981 124.513,145.084 C121.498,145.284 119.312,147.454 116.722,148.800 C114.436,149.989 111.202,151.470 110.522,153.938 C110.151,155.267 110.464,157.136 109.990,158.365 C109.677,159.174 108.992,159.895 108.572,160.664 C106.586,164.290 104.940,169.085 106.448,174.304 C106.671,175.077 108.643,179.441 109.457,180.323 C110.371,181.303 113.058,182.773 114.592,182.800 C115.889,182.827 117.411,182.144 118.668,181.915 C120.125,181.656 121.951,181.633 123.275,181.208 C127.103,179.983 126.348,174.805 130.181,173.061 C131.853,172.305 133.790,172.153 136.734,172.000 C137.669,172.789 138.107,174.164 137.977,175.363 C137.879,176.267 137.020,177.086 136.559,178.374 C136.157,179.505 136.072,180.829 135.674,181.740 C135.146,182.935 133.969,183.807 133.549,184.929 C133.272,185.658 133.424,186.566 133.196,187.227 C132.789,188.396 131.228,189.218 131.952,190.416 C135.745,191.924 140.334,189.987 143.644,190.595 C145.040,190.850 147.920,192.518 147.894,194.669 C147.876,196.280 146.650,197.334 146.476,199.097 C146.261,201.315 145.335,204.029 145.237,205.823 C145.081,208.761 149.548,213.832 152.675,213.791 C156.043,213.747 158.007,210.442 162.064,212.200 C163.411,212.781 164.833,214.963 166.318,214.856 C167.544,214.767 169.395,212.620 170.214,211.135 C171.211,209.324 171.283,207.799 173.045,206.887 C174.946,205.903 176.458,206.377 178.891,205.469 C179.978,205.067 180.922,204.373 181.901,203.698 C182.760,203.108 183.664,201.561 184.737,202.634 C186.151,204.047 183.006,204.843 184.205,206.354 C186.661,207.656 187.918,203.935 189.698,203.876 C190.266,203.859 192.230,204.982 193.241,205.648 C194.623,206.556 195.092,207.830 196.604,208.126 C197.575,208.318 199.136,207.754 200.500,207.946 C202.307,208.206 203.385,209.757 204.754,209.717 C206.423,209.673 207.223,207.856 208.650,207.593 C211.777,207.021 212.939,207.942 214.317,209.896 C215.861,210.165 215.914,208.113 217.327,208.837 C216.553,210.379 217.591,211.089 218.213,212.379 C218.616,213.205 218.548,213.791 218.924,214.149 C219.770,214.954 221.402,214.954 222.641,215.742 C223.948,216.564 224.685,218.093 226.184,219.816 C227.727,221.578 230.321,223.402 232.383,223.532 C234.329,223.658 235.912,222.982 237.523,223.179 C241.186,223.630 243.463,225.459 246.026,227.433 C247.458,228.532 248.750,229.296 249.210,230.615 C249.533,231.536 249.376,232.771 249.743,233.805 C250.526,236.009 253.742,237.073 252.579,240.888 C253.111,242.006 254.306,242.408 255.589,243.190 C256.618,243.822 257.486,245.136 258.599,245.315 C259.319,245.431 260.103,245.100 260.724,245.136 C262.737,245.279 264.119,246.058 265.864,246.733 C266.946,247.150 268.333,247.314 269.053,247.802 C269.952,248.405 270.068,250.444 271.177,250.981 C271.902,251.333 273.513,250.847 274.720,250.981 C276.621,251.205 279.202,252.367 280.919,252.404 C281.962,252.425 282.825,251.973 283.751,252.045 C288.089,252.381 290.549,257.568 294.737,259.129 C296.034,259.617 298.091,259.277 298.986,259.662 C300.556,260.341 301.880,265.144 301.996,267.272 C302.354,273.708 297.411,275.773 294.558,280.027 C293.962,280.917 293.632,282.325 292.786,283.569 ZM251.340,29.617 C252.212,29.723 252.704,29.447 252.579,28.557 C251.791,28.002 250.642,28.730 251.340,29.617 ZM193.773,99.215 C193.035,98.495 190.628,98.700 188.987,98.861 C187.828,98.978 186.451,99.223 186.330,100.100 C188.173,100.945 193.195,101.553 193.773,99.215 ZM184.558,96.205 C185.950,95.109 185.332,92.873 183.852,92.484 C183.271,92.332 182.497,92.913 181.548,92.841 C180.547,92.765 179.545,91.849 178.717,91.778 C177.304,91.656 175.868,92.355 175.349,93.016 C175.295,94.076 176.128,94.246 176.060,95.319 C174.338,96.549 175.250,100.663 176.946,100.810 C178.744,100.967 179.674,96.263 182.080,95.852 C182.953,95.699 183.400,96.347 184.558,96.205 ZM171.985,105.767 C172.213,107.269 174.535,106.723 175.882,106.298 C178.681,105.412 180.448,104.652 182.080,103.288 C179.562,102.393 177.236,103.897 175.174,104.174 C173.944,104.339 171.703,103.923 171.985,105.767 ZM159.939,105.591 C161.138,105.842 163.602,103.355 163.836,102.403 C164.636,99.156 166.099,96.839 168.617,95.319 C170.075,94.438 171.569,94.549 171.806,92.663 C171.072,91.799 167.100,92.765 165.960,93.549 C165.177,94.089 164.645,95.408 163.836,96.384 C162.999,97.390 162.064,98.168 161.357,99.041 C160.718,99.826 157.130,105.001 159.939,105.591 ZM165.074,88.235 C166.314,88.454 167.038,90.150 168.264,90.359 C169.100,90.503 173.953,89.970 174.289,89.827 C177.818,88.325 173.591,83.697 171.985,83.275 C169.113,82.525 165.030,85.382 161.711,86.286 C159.841,86.795 158.061,86.840 157.636,88.415 C159.313,91.187 162.628,87.806 165.074,88.235 ZM163.661,25.900 C164.252,25.520 165.155,25.005 164.721,24.129 C162.766,23.212 159.461,23.910 156.575,23.597 C154.939,21.284 152.201,20.927 151.969,24.661 C155.265,27.336 160.257,23.414 163.661,25.900 ZM149.665,72.830 C151.642,72.757 152.980,66.918 149.665,67.691 C147.446,68.210 146.910,72.928 149.665,72.830 ZM131.952,44.141 C132.959,43.792 134.354,43.971 134.609,42.899 C133.781,42.236 132.932,41.342 131.952,41.306 C130.668,41.261 130.051,42.397 128.763,43.077 C127.265,43.868 125.189,44.061 125.045,45.380 C127.788,45.917 130.257,44.723 131.952,44.141 ZM131.066,31.387 C132.198,31.194 133.361,31.705 134.081,30.680 C133.236,26.781 127.841,29.164 124.692,29.441 C124.030,30.550 123.145,31.436 122.921,32.984 C125.363,33.601 128.311,31.856 131.066,31.387 ZM183.499,209.717 C182.215,210.311 182.881,212.589 184.205,212.379 C185.605,212.151 185.198,208.935 183.499,209.717 ZM522.167,300.750 C522.324,299.324 523.340,296.984 524.471,296.139 C526.104,294.928 528.313,295.052 529.963,294.194 C531.323,293.482 533.207,292.307 534.213,291.006 C535.067,289.900 535.113,288.640 535.810,287.816 C536.284,287.249 537.357,287.096 537.929,286.404 C538.444,285.778 538.333,284.615 539.174,283.927 C541.633,282.875 542.339,287.378 542.720,290.473 C542.832,291.439 543.333,292.473 543.244,292.951 C542.989,294.364 541.432,294.656 540.944,295.617 C540.824,299.497 539.299,302.869 537.929,306.058 C536.754,308.814 536.070,311.832 535.099,314.206 C534.746,315.069 534.003,315.744 533.685,316.505 C532.406,319.519 531.936,324.251 529.607,325.539 C528.770,325.999 525.535,326.790 524.646,326.778 C522.476,326.746 520.597,325.118 520.043,323.240 C519.742,322.234 520.038,321.183 519.865,320.051 C519.649,318.629 518.803,317.417 518.979,315.799 C519.372,312.194 522.882,310.445 523.053,307.476 C523.183,305.239 521.921,303.017 522.167,300.750 ZM639.958,211.135 C641.483,211.635 646.573,217.820 645.094,221.233 C644.673,222.204 642.918,223.452 641.197,223.179 C637.690,222.623 638.361,214.821 639.426,211.668 C639.524,211.412 639.707,211.234 639.958,211.135 ZM692.744,225.660 C693.843,225.867 695.142,225.572 695.933,225.835 C697.542,226.376 698.652,228.889 700.361,230.262 C701.318,231.032 702.566,231.563 703.545,232.385 C704.597,233.268 705.366,234.528 706.203,235.043 C707.357,235.749 708.954,236.214 710.456,237.173 C712.505,238.473 716.160,239.827 716.656,242.488 C716.777,243.147 716.347,244.264 716.477,244.782 C716.723,245.712 717.899,246.115 718.602,246.908 C719.473,247.895 719.653,249.371 720.905,249.567 C722.153,249.916 722.210,248.149 723.562,248.325 C724.116,248.401 726.075,251.125 726.044,251.870 C725.982,253.118 724.108,253.051 723.562,254.702 C722.730,257.247 723.938,260.130 722.502,261.435 C721.697,261.923 720.243,261.777 718.960,261.785 C715.748,259.526 713.204,256.835 710.456,253.816 C709.460,252.721 708.243,251.768 707.621,250.627 C706.700,248.936 706.372,247.077 705.322,245.493 C704.392,244.103 702.687,243.111 701.775,241.600 C701.036,240.355 700.965,238.722 700.186,237.524 C699.453,236.411 698.218,235.934 697.346,235.043 C696.783,234.462 696.460,233.554 695.933,232.919 C693.706,230.253 689.424,228.863 689.206,224.949 C690.113,223.912 691.049,225.339 692.744,225.660 ZM727.458,262.670 C730.642,263.087 732.768,265.896 736.852,265.326 C737.818,265.193 738.538,264.479 739.509,264.447 C741.571,264.365 743.615,265.971 746.056,265.680 C746.589,266.253 746.227,266.727 746.240,267.634 C748.312,268.739 751.710,268.537 752.788,270.639 C751.236,272.285 748.932,271.105 746.942,270.814 C745.144,270.560 743.230,270.685 741.275,270.461 C738.798,270.175 736.556,268.806 734.195,268.516 C732.759,268.336 731.291,268.721 729.940,268.516 C728.347,268.270 722.408,266.028 722.324,264.447 C722.238,262.814 724.997,262.353 727.458,262.670 ZM759.166,270.461 C761.306,270.269 764.266,268.767 764.834,271.346 C763.936,272.622 760.818,271.244 759.699,272.584 C757.856,272.540 756.001,272.517 755.625,270.992 C756.156,269.697 757.835,270.587 759.166,270.461 ZM730.168,256.160 C725.660,256.160 725.660,249.169 730.168,249.169 C734.673,249.169 734.673,256.160 730.168,256.160 ZM735.787,236.639 C737.021,236.433 738.292,237.382 739.151,237.173 C740.860,236.751 740.559,234.541 741.986,233.625 C742.777,233.115 744.228,233.330 745.354,232.919 C746.514,232.493 747.385,231.390 748.186,230.440 C748.929,229.556 749.510,228.071 750.489,227.433 C751.589,226.706 752.610,226.689 753.499,226.013 C755.821,224.243 755.896,221.774 757.749,219.636 C759.323,217.830 761.810,221.377 762.003,222.825 C762.883,223.952 764.615,224.229 765.367,225.482 C764.325,228.599 761.381,228.868 762.003,233.272 C762.106,233.991 762.593,235.325 763.067,236.286 C763.573,237.323 765.071,238.442 765.013,239.116 C764.897,240.440 762.231,240.382 761.645,241.772 C761.108,243.060 761.684,243.147 761.470,245.136 C760.724,246.581 758.724,246.929 758.102,248.683 C757.355,250.788 758.214,253.511 756.511,255.060 C755.333,254.996 754.046,256.079 752.619,255.939 C751.067,255.798 749.586,253.668 747.120,253.636 C746.181,253.629 745.072,254.237 744.110,254.169 C743.355,254.115 742.742,253.418 741.628,253.110 C740.291,252.734 739.035,252.940 738.449,252.576 C737.235,251.832 737.415,249.711 737.025,248.503 C736.636,247.282 735.165,246.631 734.374,244.962 C733.219,242.547 732.723,237.140 735.787,236.639 ZM803.100,280.738 C803.280,282.209 800.712,282.038 800.443,281.086 C800.493,279.947 802.783,279.589 803.100,280.738 ZM772.627,238.943 C773.927,238.808 775.868,239.644 777.770,239.649 C779.849,239.654 781.809,239.010 783.254,239.827 C782.985,244.256 776.116,240.888 771.570,241.600 C770.599,241.747 770.314,242.497 769.262,242.126 C769.321,240.629 770.940,239.113 772.627,238.943 ZM790.343,270.639 C789.565,272.845 786.895,272.800 785.209,273.829 C783.500,274.870 782.055,276.636 779.894,276.839 C779.728,276.525 779.497,276.288 779.184,276.127 C779.174,274.150 781.148,273.699 782.552,272.948 C784.577,271.843 786.792,269.418 790.343,270.639 ZM766.959,249.389 C767.522,247.783 767.165,244.693 769.084,244.612 C770.032,244.569 771.303,246.602 771.919,246.733 C774.035,247.188 776.549,244.577 779.537,245.136 C779.738,247.587 776.392,247.859 775.462,249.747 C776.934,251.996 777.506,255.140 779.184,257.179 C779.112,258.531 779.457,260.296 778.650,260.900 C775.086,261.584 773.167,255.176 771.741,252.935 C769.016,253.444 771.504,262.161 767.849,261.080 C766.055,260.547 767.871,258.056 767.491,256.124 C767.160,254.425 765.497,254.076 765.367,252.752 C765.264,251.661 766.570,250.503 766.959,249.389 ZM772.983,271.526 C772.331,272.867 768.690,272.223 768.382,270.992 C769.002,269.598 772.680,270.018 772.983,271.526 ZM765.725,274.360 C766.718,272.902 769.571,274.109 769.615,275.773 C769.410,276.037 769.173,276.275 768.913,276.485 C767.566,276.055 766.131,275.729 765.725,274.360 ZM790.696,86.111 C792.451,87.037 796.699,89.138 793.707,91.071 C791.895,90.399 790.008,88.109 790.696,86.111 ZM802.036,129.320 C800.689,129.932 800.318,132.169 799.021,132.509 C797.979,132.782 797.173,131.604 796.189,131.623 C793.645,131.672 792.401,135.880 789.279,134.811 C787.494,135.876 789.350,139.953 787.155,140.298 C785.593,140.544 784.735,138.527 783.787,137.290 C782.641,135.787 781.004,134.964 780.959,133.747 C780.911,132.486 783.500,130.375 784.318,129.499 C785.325,128.421 787.301,126.412 788.568,126.131 C790.929,125.613 793.326,126.359 795.126,125.604 C796.676,124.942 796.767,122.499 797.603,121.883 C798.314,121.359 799.123,121.503 799.732,121.176 C801.374,120.286 803.150,117.223 802.211,114.092 C801.619,112.116 798.341,109.951 800.443,107.536 C803.579,107.872 807.717,110.962 808.235,114.092 C808.437,115.313 807.760,116.534 807.877,117.810 C807.940,118.542 808.619,119.329 808.938,120.291 C809.658,122.415 810.150,124.508 810.713,126.489 C808.758,128.917 804.898,128.018 802.036,129.320 ZM795.832,94.787 C797.562,94.424 800.962,97.685 804.868,98.328 C807.391,98.744 809.501,98.521 809.649,100.986 C809.251,101.889 808.450,101.700 807.703,102.223 C806.978,102.734 806.119,104.357 805.226,104.527 C803.802,104.795 802.205,103.131 800.792,103.468 C799.133,103.860 800.103,105.135 799.554,106.651 C798.100,106.342 795.714,104.723 795.657,103.109 C795.618,102.095 796.936,101.468 797.254,100.279 C797.778,98.253 796.418,97.234 795.657,95.319 C795.603,95.033 795.826,95.015 795.832,94.787 ZM739.862,346.790 C739.898,345.613 739.069,344.205 739.151,342.720 C739.217,341.561 739.871,340.324 739.862,339.173 C739.848,337.609 738.868,336.231 738.618,334.572 C738.529,333.973 738.707,333.199 738.618,332.444 C738.502,331.347 737.960,330.436 738.087,329.786 C738.333,328.615 739.700,328.489 740.040,327.484 C740.595,325.833 739.361,325.569 739.329,323.589 C739.306,322.189 740.390,321.509 741.104,319.693 C741.432,318.852 741.446,317.283 741.808,316.684 C742.268,315.929 744.228,315.289 744.996,314.917 C747.712,313.584 749.889,311.107 752.619,310.664 C753.307,310.552 754.246,310.749 754.743,310.664 C756.349,310.383 758.366,309.037 760.588,308.540 C762.737,308.053 764.638,308.235 766.256,307.297 C768.033,306.273 770.546,303.590 771.212,301.985 C772.022,300.039 771.784,298.398 773.338,297.736 C774.102,297.415 774.849,297.763 775.640,297.561 C776.460,297.347 778.222,296.510 778.830,295.965 C780.065,294.861 780.266,293.050 781.662,291.892 C782.631,291.094 784.452,289.865 785.740,289.240 C786.496,288.860 787.900,288.465 788.568,288.528 C791.068,288.742 792.230,292.226 794.946,291.537 C795.917,291.293 796.906,289.231 797.786,287.996 C799.062,286.190 799.991,283.757 802.211,283.216 C804.003,282.777 806.008,283.904 806.992,282.330 C807.215,281.211 806.156,280.546 806.992,279.848 C809.059,279.978 812.548,282.763 815.670,282.857 C817.351,282.911 820.473,281.024 820.809,283.569 C820.957,284.695 819.548,285.603 819.216,286.757 C818.979,287.571 819.565,288.010 819.038,288.882 C817.596,289.450 816.071,289.748 816.027,291.359 C815.973,293.380 818.885,294.327 820.629,295.438 C821.828,296.193 822.826,297.351 823.466,297.736 C824.011,298.058 824.874,298.210 825.237,298.442 C826.387,299.190 827.201,300.880 828.784,300.925 C830.582,300.970 832.381,298.675 833.386,296.492 C834.564,293.943 834.630,290.848 835.154,288.171 C835.332,287.276 835.968,286.404 836.218,285.515 C836.902,283.093 837.829,279.822 839.935,278.962 C842.050,281.202 842.772,285.558 842.421,289.240 C843.835,290.313 846.323,289.955 846.667,292.427 C846.787,293.282 846.243,294.373 846.313,295.255 C846.434,296.747 847.544,298.054 847.736,299.328 C848.089,301.689 847.342,303.634 848.438,305.351 C849.820,307.516 852.531,307.444 854.285,309.784 C854.253,311.236 854.830,311.823 855.169,312.963 C855.335,313.504 855.179,314.386 855.349,314.739 C855.917,315.922 857.451,316.040 858.006,317.037 C858.279,317.528 858.202,318.456 858.537,319.340 C859.022,320.641 860.189,321.611 861.016,322.882 C861.816,324.112 863.127,325.449 863.319,326.428 C863.673,328.191 862.393,329.401 862.076,330.851 C861.696,332.613 862.076,334.885 861.374,336.696 C860.551,338.824 858.524,340.922 856.942,343.602 C855.643,345.805 853.877,348.288 851.981,349.800 C850.862,350.695 849.534,351.212 848.438,352.106 C846.742,353.488 845.352,355.282 843.835,356.887 C842.239,358.573 840.306,359.860 839.049,361.310 C837.230,363.416 836.325,366.814 833.208,367.155 C831.383,367.356 829.746,367.200 828.069,367.866 C825.446,368.908 823.707,370.826 822.406,370.876 C821.037,370.920 819.771,369.270 818.505,369.104 C817.087,368.921 815.973,370.178 813.902,370.165 C813.056,370.161 812.632,369.665 811.424,369.279 C808.893,368.479 806.110,368.511 805.757,365.741 C805.556,364.230 806.719,363.551 806.639,362.195 C806.562,360.844 805.238,360.505 804.688,359.364 C805.037,358.145 805.094,356.605 803.802,355.819 C803.758,354.718 804.039,353.932 804.513,353.341 C803.485,353.780 802.129,354.052 800.967,354.763 C799.677,355.541 798.748,357.329 797.254,357.062 C795.853,356.570 796.928,355.178 796.722,354.052 C796.566,353.193 794.606,349.530 793.707,348.917 C792.683,348.216 788.935,346.807 787.686,346.610 C782.212,345.755 778.723,348.680 774.398,349.097 C773.288,349.200 772.080,348.910 771.037,349.097 C767.477,349.719 763.510,352.545 761.292,354.405 C757.628,354.768 753.916,353.653 750.131,354.763 C746.378,355.857 744.228,358.985 738.449,358.122 C737.303,357.137 735.268,356.649 735.259,354.937 C735.245,353.586 737.258,352.715 737.916,351.749 C738.613,350.715 739.808,348.282 739.862,346.790 ZM817.087,377.780 C819.157,378.115 821.103,376.529 822.755,377.780 C822.226,379.990 820.540,382.445 818.327,383.979 C816.730,385.090 811.648,387.337 811.067,384.158 C810.905,383.272 812.055,379.162 812.480,378.313 C813.733,375.831 815.069,377.454 817.087,377.780 Z"/>
</svg>